<mxfile host="app.diagrams.net" modified="2022-03-19T12:58:51.728Z" agent="5.0 (Macintosh)" etag="vilrp5AdjfDrMnnu3Tz9" version="17.1.2" type="github">
  <diagram id="ViyBQ_80oSnGpngige72" name="Page-1">
    <mxGraphModel dx="1104" dy="711" grid="1" gridSize="10" guides="1" tooltips="1" connect="1" arrows="1" fold="1" page="1" pageScale="1" pageWidth="827" pageHeight="1169" math="0" shadow="0">
      <root>
        <mxCell id="0" />
        <mxCell id="1" parent="0" />
        <mxCell id="_ke8fGfvICYKHX0w_fng-3" style="edgeStyle=orthogonalEdgeStyle;rounded=0;orthogonalLoop=1;jettySize=auto;html=1;" edge="1" parent="1" source="_ke8fGfvICYKHX0w_fng-1" target="_ke8fGfvICYKHX0w_fng-2">
          <mxGeometry relative="1" as="geometry" />
        </mxCell>
        <mxCell id="_ke8fGfvICYKHX0w_fng-1" value="Objetivo" style="rounded=0;whiteSpace=wrap;html=1;" vertex="1" parent="1">
          <mxGeometry x="200" y="20" width="120" height="60" as="geometry" />
        </mxCell>
        <mxCell id="_ke8fGfvICYKHX0w_fng-6" style="edgeStyle=orthogonalEdgeStyle;rounded=0;orthogonalLoop=1;jettySize=auto;html=1;" edge="1" parent="1" source="_ke8fGfvICYKHX0w_fng-2" target="_ke8fGfvICYKHX0w_fng-5">
          <mxGeometry relative="1" as="geometry" />
        </mxCell>
        <mxCell id="_ke8fGfvICYKHX0w_fng-2" value="Caso de Uso / Historia de Usuario " style="rounded=0;whiteSpace=wrap;html=1;" vertex="1" parent="1">
          <mxGeometry x="200" y="140" width="120" height="60" as="geometry" />
        </mxCell>
        <mxCell id="_ke8fGfvICYKHX0w_fng-4" value="&lt;div&gt;Se logra &lt;br&gt;&lt;/div&gt;&lt;div&gt;habilitando&lt;/div&gt;" style="text;html=1;strokeColor=none;fillColor=none;align=left;verticalAlign=middle;whiteSpace=wrap;rounded=0;" vertex="1" parent="1">
          <mxGeometry x="267" y="90" width="70" height="30" as="geometry" />
        </mxCell>
        <mxCell id="_ke8fGfvICYKHX0w_fng-13" style="edgeStyle=orthogonalEdgeStyle;rounded=0;orthogonalLoop=1;jettySize=auto;html=1;" edge="1" parent="1" source="_ke8fGfvICYKHX0w_fng-5" target="_ke8fGfvICYKHX0w_fng-12">
          <mxGeometry relative="1" as="geometry" />
        </mxCell>
        <mxCell id="_ke8fGfvICYKHX0w_fng-5" value="Requisito&lt;br&gt;Funcional" style="rounded=0;whiteSpace=wrap;html=1;" vertex="1" parent="1">
          <mxGeometry x="200" y="260" width="120" height="60" as="geometry" />
        </mxCell>
        <mxCell id="_ke8fGfvICYKHX0w_fng-7" value="&lt;div&gt;Se habilita &lt;br&gt;&lt;/div&gt;&lt;div&gt;implementando&lt;/div&gt;" style="text;html=1;strokeColor=none;fillColor=none;align=left;verticalAlign=middle;whiteSpace=wrap;rounded=0;" vertex="1" parent="1">
          <mxGeometry x="267" y="210" width="90" height="30" as="geometry" />
        </mxCell>
        <mxCell id="_ke8fGfvICYKHX0w_fng-9" style="edgeStyle=orthogonalEdgeStyle;rounded=0;orthogonalLoop=1;jettySize=auto;html=1;" edge="1" parent="1" source="_ke8fGfvICYKHX0w_fng-8" target="_ke8fGfvICYKHX0w_fng-5">
          <mxGeometry relative="1" as="geometry" />
        </mxCell>
        <mxCell id="_ke8fGfvICYKHX0w_fng-8" value="Requisito &lt;br&gt;No Funcional" style="rounded=0;whiteSpace=wrap;html=1;" vertex="1" parent="1">
          <mxGeometry x="430" y="260" width="120" height="60" as="geometry" />
        </mxCell>
        <mxCell id="_ke8fGfvICYKHX0w_fng-10" value="&lt;div&gt;definen &lt;br&gt;&lt;/div&gt;caracteristicas" style="text;html=1;strokeColor=none;fillColor=none;align=right;verticalAlign=middle;whiteSpace=wrap;rounded=0;" vertex="1" parent="1">
          <mxGeometry x="310" y="290" width="120" height="30" as="geometry" />
        </mxCell>
        <mxCell id="_ke8fGfvICYKHX0w_fng-22" style="edgeStyle=none;rounded=0;orthogonalLoop=1;jettySize=auto;html=1;strokeWidth=1;" edge="1" parent="1" source="_ke8fGfvICYKHX0w_fng-12" target="_ke8fGfvICYKHX0w_fng-18">
          <mxGeometry relative="1" as="geometry" />
        </mxCell>
        <mxCell id="_ke8fGfvICYKHX0w_fng-12" value="Diseño" style="rounded=0;whiteSpace=wrap;html=1;" vertex="1" parent="1">
          <mxGeometry x="200" y="370" width="120" height="60" as="geometry" />
        </mxCell>
        <mxCell id="_ke8fGfvICYKHX0w_fng-14" value="" style="endArrow=classic;html=1;rounded=0;exitX=1;exitY=0.5;exitDx=0;exitDy=0;entryX=0.5;entryY=0;entryDx=0;entryDy=0;" edge="1" parent="1" source="_ke8fGfvICYKHX0w_fng-1" target="_ke8fGfvICYKHX0w_fng-8">
          <mxGeometry width="50" height="50" relative="1" as="geometry">
            <mxPoint x="380" y="350" as="sourcePoint" />
            <mxPoint x="430" y="300" as="targetPoint" />
          </mxGeometry>
        </mxCell>
        <mxCell id="_ke8fGfvICYKHX0w_fng-18" value="Implementación" style="rounded=0;whiteSpace=wrap;html=1;" vertex="1" parent="1">
          <mxGeometry x="200" y="480" width="120" height="60" as="geometry" />
        </mxCell>
        <mxCell id="_ke8fGfvICYKHX0w_fng-21" style="edgeStyle=none;rounded=0;orthogonalLoop=1;jettySize=auto;html=1;strokeWidth=1;" edge="1" parent="1" source="_ke8fGfvICYKHX0w_fng-19" target="_ke8fGfvICYKHX0w_fng-12">
          <mxGeometry relative="1" as="geometry" />
        </mxCell>
        <mxCell id="_ke8fGfvICYKHX0w_fng-19" value="Restricción" style="rounded=0;whiteSpace=wrap;html=1;" vertex="1" parent="1">
          <mxGeometry x="430" y="370" width="120" height="60" as="geometry" />
        </mxCell>
        <mxCell id="_ke8fGfvICYKHX0w_fng-23" value="" style="endArrow=classic;html=1;rounded=0;strokeWidth=1;exitX=1;exitY=0.5;exitDx=0;exitDy=0;entryX=0.25;entryY=0;entryDx=0;entryDy=0;" edge="1" parent="1" source="_ke8fGfvICYKHX0w_fng-2" target="_ke8fGfvICYKHX0w_fng-8">
          <mxGeometry width="50" height="50" relative="1" as="geometry">
            <mxPoint x="480" y="330" as="sourcePoint" />
            <mxPoint x="474" y="260" as="targetPoint" />
          </mxGeometry>
        </mxCell>
        <mxCell id="_ke8fGfvICYKHX0w_fng-24" value="Impulsan" style="text;html=1;strokeColor=none;fillColor=none;align=center;verticalAlign=middle;whiteSpace=wrap;rounded=0;" vertex="1" parent="1">
          <mxGeometry x="357" y="70" width="60" height="30" as="geometry" />
        </mxCell>
        <mxCell id="_ke8fGfvICYKHX0w_fng-25" value="influyen" style="text;html=1;strokeColor=none;fillColor=none;align=center;verticalAlign=middle;whiteSpace=wrap;rounded=0;" vertex="1" parent="1">
          <mxGeometry x="330" y="155" width="60" height="30" as="geometry" />
        </mxCell>
        <mxCell id="_ke8fGfvICYKHX0w_fng-26" value="Impulsan" style="text;html=1;strokeColor=none;fillColor=none;align=center;verticalAlign=middle;whiteSpace=wrap;rounded=0;" vertex="1" parent="1">
          <mxGeometry x="267" y="330" width="60" height="30" as="geometry" />
        </mxCell>
        <mxCell id="_ke8fGfvICYKHX0w_fng-27" value="definen&lt;br&gt;restricciones" style="text;html=1;strokeColor=none;fillColor=none;align=right;verticalAlign=middle;whiteSpace=wrap;rounded=0;" vertex="1" parent="1">
          <mxGeometry x="330" y="400" width="96" height="30" as="geometry" />
        </mxCell>
      </root>
    </mxGraphModel>
  </diagram>
</mxfile>
